<svg version="1.1" id="Layer_1" xmlns="http://www.w3.org/2000/svg" xmlns:xlink="http://www.w3.org/1999/xlink" x="0px" y="0px"
	 width="100%" viewBox="0 0 636 636" enable-background="new 0 0 636 636" xml:space="preserve">
<path fill="#000000" opacity="0.000000" stroke="none"
	d="
M337.000000,637.000000 
	C224.666687,637.000000 112.833374,637.000000 1.000045,637.000000 
	C1.000030,425.000061 1.000030,213.000122 1.000015,1.000130 
	C212.999893,1.000087 424.999786,1.000087 636.999756,1.000043 
	C636.999878,212.999863 636.999878,424.999725 636.999939,636.999756 
	C537.166687,637.000000 437.333344,637.000000 337.000000,637.000000 
M477.481812,437.011200 
	C485.290710,432.536957 493.142029,428.134888 500.900238,423.574432 
	C521.270508,411.600525 541.544128,399.461304 561.970215,387.583893 
	C571.767822,381.886719 581.766541,376.123169 588.376038,366.884827 
	C605.496033,342.955383 599.542419,310.869720 575.658875,294.069427 
	C561.439514,284.067169 546.587036,274.962708 531.986877,265.504517 
	C503.744781,247.208984 475.462799,228.975082 447.228973,210.666885 
	C415.744751,190.250992 384.290192,169.789276 352.833160,149.331528 
	C329.880676,134.404633 306.876099,119.556351 284.017761,104.486412 
	C248.365997,80.982040 212.845016,57.279327 177.210876,33.748104 
	C166.316101,26.553673 155.366257,20.392317 141.157669,21.775856 
	C123.073326,23.536789 105.377701,34.714836 100.268669,53.746861 
	C97.987045,62.246319 98.091293,71.539894 98.085045,80.473755 
	C97.969086,246.281677 98.000145,412.089691 97.999519,577.897705 
	C97.999489,585.802856 100.043648,592.994995 103.885056,600.042603 
	C113.797638,618.228455 139.518082,628.533691 160.089554,621.214294 
	C167.709152,618.503113 174.706238,613.956543 181.838104,609.979492 
	C194.046936,603.171326 206.203766,596.264160 218.263443,589.195557 
	C235.577896,579.046875 252.730301,568.621399 270.056335,558.492798 
	C283.930634,550.381958 298.055847,542.699036 311.900848,534.539612 
	C338.354645,518.949341 364.678711,503.139038 391.075317,487.451447 
	C405.721771,478.747009 420.356842,470.021606 435.087250,461.460938 
	C448.983002,453.385284 462.996918,445.513031 477.481812,437.011200 
z"/>
<path fill="#FFFFFF" opacity="1.000000" stroke="none"
	d="
M477.220337,437.281250 
	C462.996918,445.513031 448.983002,453.385284 435.087250,461.460938 
	C420.356842,470.021606 405.721771,478.747009 391.075317,487.451447 
	C364.678711,503.139038 338.354645,518.949341 311.900848,534.539612 
	C298.055847,542.699036 283.930634,550.381958 270.056335,558.492798 
	C252.730301,568.621399 235.577896,579.046875 218.263443,589.195557 
	C206.203766,596.264160 194.046936,603.171326 181.838104,609.979492 
	C174.706238,613.956543 167.709152,618.503113 160.089554,621.214294 
	C139.518082,628.533691 113.797638,618.228455 103.885056,600.042603 
	C100.043648,592.994995 97.999489,585.802856 97.999519,577.897705 
	C98.000145,412.089691 97.969086,246.281677 98.085045,80.473755 
	C98.091293,71.539894 97.987045,62.246319 100.268669,53.746861 
	C105.377701,34.714836 123.073326,23.536789 141.157669,21.775856 
	C155.366257,20.392317 166.316101,26.553673 177.210876,33.748104 
	C212.845016,57.279327 248.365997,80.982040 284.017761,104.486412 
	C306.876099,119.556351 329.880676,134.404633 352.833160,149.331528 
	C384.290192,169.789276 415.744751,190.250992 447.228973,210.666885 
	C475.462799,228.975082 503.744781,247.208984 531.986877,265.504517 
	C546.587036,274.962708 561.439514,284.067169 575.658875,294.069427 
	C599.542419,310.869720 605.496033,342.955383 588.376038,366.884827 
	C581.766541,376.123169 571.767822,381.886719 561.970215,387.583893 
	C541.544128,399.461304 521.270508,411.600525 500.900238,423.574432 
	C493.142029,428.134888 485.290710,432.536957 477.220337,437.281250 
M144.000000,477.500000 
	C144.000000,501.327362 144.067642,525.154968 143.974106,548.981934 
	C143.919754,562.821350 156.730179,571.120178 168.422165,564.151917 
	C181.256195,556.503052 194.183365,549.010376 207.065659,541.442383 
	C221.616577,532.894287 236.172363,524.354370 250.708282,515.780823 
	C266.359222,506.549652 281.955566,497.225372 297.638763,488.049408 
	C312.475250,479.368774 327.428162,470.887146 342.267700,462.211700 
	C365.027832,448.905701 387.696350,435.442780 410.477539,422.173157 
	C425.886597,413.197662 441.425995,404.446106 456.900482,395.582825 
	C472.374298,386.719971 487.863464,377.883514 503.300995,368.957825 
	C514.019348,362.760681 524.797852,356.650360 535.300476,350.101837 
	C546.164917,343.327728 545.321960,330.002747 535.659180,323.341217 
	C523.994141,315.299377 512.028381,307.688721 500.105835,300.026733 
	C471.810303,281.842651 443.438385,263.777313 415.186951,245.525253 
	C413.012970,244.120758 411.542175,241.627869 410.095551,240.028854 
	C407.171936,238.722366 404.265289,237.812317 401.775970,236.241043 
	C392.924774,230.654190 384.243835,224.798691 375.447632,219.123611 
	C351.237518,203.503799 326.961151,187.986206 302.792908,172.301910 
	C290.626465,164.406326 278.735107,156.086014 266.548401,148.222687 
	C241.803085,132.256073 216.921677,116.500519 192.139389,100.590942 
	C184.143204,95.457611 176.310959,90.069611 168.350647,84.879494 
	C159.882385,79.358192 154.310867,79.769463 148.685959,86.285881 
	C145.742798,89.695526 144.195496,95.412727 144.186752,100.091820 
	C143.952255,225.560883 144.000000,351.030487 144.000000,477.500000 
z"/>
<path fill="#000000" opacity="0.000000" stroke="none"
	d="
M144.000000,477.000000 
	C144.000000,351.030487 143.952255,225.560883 144.186752,100.091820 
	C144.195496,95.412727 145.742798,89.695526 148.685959,86.285881 
	C154.310867,79.769463 159.882385,79.358192 168.350647,84.879494 
	C176.310959,90.069611 184.143204,95.457611 192.139389,100.590942 
	C216.921677,116.500519 241.803085,132.256073 266.548401,148.222687 
	C278.735107,156.086014 290.626465,164.406326 302.792908,172.301910 
	C326.961151,187.986206 351.237518,203.503799 375.447632,219.123611 
	C384.243835,224.798691 392.924774,230.654190 401.775970,236.241043 
	C404.265289,237.812317 407.171936,238.722366 410.095551,240.028854 
	C411.542175,241.627869 413.012970,244.120758 415.186951,245.525253 
	C443.438385,263.777313 471.810303,281.842651 500.105835,300.026733 
	C512.028381,307.688721 523.994141,315.299377 535.659180,323.341217 
	C545.321960,330.002747 546.164917,343.327728 535.300476,350.101837 
	C524.797852,356.650360 514.019348,362.760681 503.300995,368.957825 
	C487.863464,377.883514 472.374298,386.719971 456.900482,395.582825 
	C441.425995,404.446106 425.886597,413.197662 410.477539,422.173157 
	C387.696350,435.442780 365.027832,448.905701 342.267700,462.211700 
	C327.428162,470.887146 312.475250,479.368774 297.638763,488.049408 
	C281.955566,497.225372 266.359222,506.549652 250.708282,515.780823 
	C236.172363,524.354370 221.616577,532.894287 207.065659,541.442383 
	C194.183365,549.010376 181.256195,556.503052 168.422165,564.151917 
	C156.730179,571.120178 143.919754,562.821350 143.974106,548.981934 
	C144.067642,525.154968 144.000000,501.327362 144.000000,477.000000 
M368.000122,359.186707 
	C369.078552,360.457397 370.084015,362.741821 371.247864,362.825592 
	C376.674927,363.216156 382.145752,362.998749 387.996094,362.998749 
	C387.996094,340.008606 388.576935,317.378326 387.734039,294.801208 
	C387.352386,284.578308 382.256470,278.534973 372.720886,276.600922 
	C365.687164,275.174255 358.030365,276.769348 350.655701,277.113922 
	C349.064087,277.188263 347.463074,278.030701 345.915466,277.906738 
	C339.595734,277.400360 333.308502,276.437317 326.984344,276.048676 
	C316.060669,275.377319 306.795959,285.065308 306.937347,295.946899 
	C307.168884,313.768951 307.000000,331.596191 307.000000,349.421265 
	C307.000000,353.862030 307.000000,358.302795 307.000000,362.739746 
	C313.591492,362.739746 319.661682,362.739746 326.000000,362.739746 
	C326.000000,342.019592 326.082489,321.557861 325.935822,301.097778 
	C325.903503,296.586884 327.140503,294.872833 332.056946,294.799133 
	C337.239014,294.721405 338.071564,296.921173 338.047180,301.217499 
	C337.938477,320.374664 337.995056,339.532776 338.010040,358.690552 
	C338.011139,360.109863 338.155487,361.529053 338.216522,362.643005 
	C344.790619,362.643005 350.867554,362.643005 357.000000,362.643005 
	C357.000000,341.632111 357.100769,320.977173 356.914581,300.324829 
	C356.877594,296.221924 357.931549,294.763397 362.222839,294.861420 
	C366.238342,294.953186 368.178528,295.487213 368.111877,300.264709 
	C367.842316,319.585327 368.000000,338.911896 368.000122,359.186707 
M201.000000,352.478455 
	C201.000000,355.917267 201.000000,359.356049 201.000000,363.000000 
	C206.367920,363.000000 211.192673,362.759430 215.980896,363.074219 
	C219.989853,363.337769 221.121384,361.923462 221.083557,357.963226 
	C220.898941,338.635437 221.161041,319.302612 220.884155,299.977020 
	C220.816864,295.281036 222.871292,294.966553 226.568954,294.896484 
	C230.499313,294.821991 232.165405,295.646362 232.107834,300.118591 
	C231.856934,319.611572 231.995071,339.109558 232.010193,358.605743 
	C232.011292,360.032623 232.157593,361.459351 232.224503,362.670837 
	C238.731369,362.670837 244.807114,362.670837 251.000000,362.670837 
	C251.000000,340.023682 250.925659,317.705048 251.039230,295.387329 
	C251.080460,287.287781 246.932404,282.085938 240.418030,278.096893 
	C235.070709,274.822540 229.201172,276.552429 223.568848,275.966400 
	C209.279938,274.479706 200.848175,286.109680 200.959579,298.493652 
	C201.118454,316.155426 201.000000,333.819702 201.000000,352.478455 
M300.658722,284.128693 
	C295.958801,279.013489 290.679474,275.283661 283.194366,275.947479 
	C279.725159,276.255127 276.199890,276.133820 272.710754,275.973663 
	C263.956116,275.571747 254.175888,284.321869 254.056183,294.197083 
	C253.852371,311.011139 253.944077,327.829712 254.025543,344.645844 
	C254.061905,352.148895 259.832550,360.284973 267.311859,361.897430 
	C273.006500,363.125092 279.108154,362.318817 284.940674,363.086517 
	C294.030823,364.282990 304.908173,353.027863 304.098419,343.828247 
	C303.574860,337.880310 304.000000,331.848907 304.000000,325.854889 
	C304.000000,314.000000 304.000000,314.000000 292.325378,314.000000 
	C277.972748,314.000000 278.020691,314.000183 277.965271,328.199005 
	C277.951904,331.616547 277.779877,334.751038 282.729797,334.086884 
	C283.325714,334.006897 284.605927,334.857880 284.621429,335.309875 
	C284.710144,337.896484 285.337555,342.227325 284.249542,342.744995 
	C281.514130,344.046478 277.927704,343.959656 274.758209,343.651184 
	C274.017700,343.579163 273.097260,340.420990 273.077057,338.673309 
	C272.932709,326.187469 273.086487,313.698242 272.952515,301.212158 
	C272.906403,296.915405 273.763062,294.720612 278.942749,294.798767 
	C283.857910,294.872925 285.428284,296.582275 285.022858,301.096466 
	C284.879761,302.689819 285.000000,304.306854 285.000000,306.805786 
	C289.941406,305.010712 294.187500,303.635284 298.299591,301.935638 
	C304.613312,299.325989 305.357788,297.440033 303.143799,290.653748 
	C302.501068,288.683685 301.707794,286.762787 300.658722,284.128693 
z"/>
<path fill="#FFFFFF" opacity="1.000000" stroke="none" 
	d="
M368.000061,358.711487 
	C368.000000,338.911896 367.842316,319.585327 368.111877,300.264709 
	C368.178528,295.487213 366.238342,294.953186 362.222839,294.861420 
	C357.931549,294.763397 356.877594,296.221924 356.914581,300.324829 
	C357.100769,320.977173 357.000000,341.632111 357.000000,362.643005 
	C350.867554,362.643005 344.790619,362.643005 338.216522,362.643005 
	C338.155487,361.529053 338.011139,360.109863 338.010040,358.690552 
	C337.995056,339.532776 337.938477,320.374664 338.047180,301.217499 
	C338.071564,296.921173 337.239014,294.721405 332.056946,294.799133 
	C327.140503,294.872833 325.903503,296.586884 325.935822,301.097778 
	C326.082489,321.557861 326.000000,342.019592 326.000000,362.739746 
	C319.661682,362.739746 313.591492,362.739746 307.000000,362.739746 
	C307.000000,358.302795 307.000000,353.862030 307.000000,349.421265 
	C307.000000,331.596191 307.168884,313.768951 306.937347,295.946899 
	C306.795959,285.065308 316.060669,275.377319 326.984344,276.048676 
	C333.308502,276.437317 339.595734,277.400360 345.915466,277.906738 
	C347.463074,278.030701 349.064087,277.188263 350.655701,277.113922 
	C358.030365,276.769348 365.687164,275.174255 372.720886,276.600922 
	C382.256470,278.534973 387.352386,284.578308 387.734039,294.801208 
	C388.576935,317.378326 387.996094,340.008606 387.996094,362.998749 
	C382.145752,362.998749 376.674927,363.216156 371.247864,362.825592 
	C370.084015,362.741821 369.078552,360.457397 368.000061,358.711487 
z"/>
<path fill="#FFFFFF" opacity="1.000000" stroke="none" 
	d="
M201.000000,351.980682 
	C201.000000,333.819702 201.118454,316.155426 200.959579,298.493652 
	C200.848175,286.109680 209.279938,274.479706 223.568848,275.966400 
	C229.201172,276.552429 235.070709,274.822540 240.418030,278.096893 
	C246.932404,282.085938 251.080460,287.287781 251.039230,295.387329 
	C250.925659,317.705048 251.000000,340.023682 251.000000,362.670837 
	C244.807114,362.670837 238.731369,362.670837 232.224503,362.670837 
	C232.157593,361.459351 232.011292,360.032623 232.010193,358.605743 
	C231.995071,339.109558 231.856934,319.611572 232.107834,300.118591 
	C232.165405,295.646362 230.499313,294.821991 226.568954,294.896484 
	C222.871292,294.966553 220.816864,295.281036 220.884155,299.977020 
	C221.161041,319.302612 220.898941,338.635437 221.083557,357.963226 
	C221.121384,361.923462 219.989853,363.337769 215.980896,363.074219 
	C211.192673,362.759430 206.367920,363.000000 201.000000,363.000000 
	C201.000000,359.356049 201.000000,355.917267 201.000000,351.980682 
z"/>
<path fill="#FFFFFF" opacity="1.000000" stroke="none" 
	d="
M300.821136,284.473999 
	C301.707794,286.762787 302.501068,288.683685 303.143799,290.653748 
	C305.357788,297.440033 304.613312,299.325989 298.299591,301.935638 
	C294.187500,303.635284 289.941406,305.010712 285.000000,306.805786 
	C285.000000,304.306854 284.879761,302.689819 285.022858,301.096466 
	C285.428284,296.582275 283.857910,294.872925 278.942749,294.798767 
	C273.763062,294.720612 272.906403,296.915405 272.952515,301.212158 
	C273.086487,313.698242 272.932709,326.187469 273.077057,338.673309 
	C273.097260,340.420990 274.017700,343.579163 274.758209,343.651184 
	C277.927704,343.959656 281.514130,344.046478 284.249542,342.744995 
	C285.337555,342.227325 284.710144,337.896484 284.621429,335.309875 
	C284.605927,334.857880 283.325714,334.006897 282.729797,334.086884 
	C277.779877,334.751038 277.951904,331.616547 277.965271,328.199005 
	C278.020691,314.000183 277.972748,314.000000 292.325378,314.000000 
	C304.000000,314.000000 304.000000,314.000000 304.000000,325.854889 
	C304.000000,331.848907 303.574860,337.880310 304.098419,343.828247 
	C304.908173,353.027863 294.030823,364.282990 284.940674,363.086517 
	C279.108154,362.318817 273.006500,363.125092 267.311859,361.897430 
	C259.832550,360.284973 254.061905,352.148895 254.025543,344.645844 
	C253.944077,327.829712 253.852371,311.011139 254.056183,294.197083 
	C254.175888,284.321869 263.956116,275.571747 272.710754,275.973663 
	C276.199890,276.133820 279.725159,276.255127 283.194366,275.947479 
	C290.679474,275.283661 295.958801,279.013489 300.821136,284.473999 
z"/>
</svg>